
<svg width="49" height="49" viewBox="0 0 49 49" fill="none" xmlns="http://www.w3.org/2000/svg">
<path d="M47.9087 19.322L47.3244 17.0685L47.2827 16.985C45.7525 12.0328 42.8869 7.99869 38.6858 4.88268L38.6024 4.79921L35.2638 2.7126L34.9717 2.5874L34.6378 2.37874H34.5961C31.2853 0.792912 27.8215 0 24.2047 0C17.5276 0 11.8241 2.36483 7.09449 7.09449C2.36483 11.852 0 17.5554 0 24.2047C0 30.8819 2.36483 36.5853 7.09449 41.315C11.8241 46.0446 17.5276 48.4095 24.2047 48.4095C27.8772 48.4095 31.3409 47.6304 34.5961 46.0724H34.6378L34.9717 45.8638L35.2638 45.7386L38.6024 43.652L38.6858 43.5685C42.8869 40.4525 45.7525 36.4184 47.2827 31.4661L47.3244 31.3827L47.9087 29.1291L48.4095 24.2047L47.9087 19.322Z" fill="white"/>
<svg width="32" height="46" viewBox="-1 0 33 43" fill="none" xmlns="http://www.w3.org/2000/svg">
<path d="M2.88112 13.4394C3.07587 13.6341 3.17325 13.8289 3.17325 14.0236C3.17325 14.274 3.08979 14.4827 2.92286 14.6496C2.75593 14.7887 2.56118 14.8583 2.3386 14.8583H2.25514C1.19792 17.4735 0.669312 20.2557 0.669312 23.2047C0.669312 28.2126 2.17168 32.7336 5.1764 36.7677C5.31551 36.6286 5.48243 36.5591 5.67719 36.5591C5.89976 36.5591 6.09451 36.6425 6.26144 36.8095C6.42837 36.9764 6.51183 37.1711 6.51183 37.3937C6.51183 37.6719 6.41446 37.8806 6.21971 38.0197C6.88742 38.7987 7.61078 39.5221 8.38978 40.1898C8.52889 39.995 8.73755 39.8977 9.01577 39.8977C9.23834 39.8977 9.4331 39.9811 9.60002 40.148C9.76695 40.315 9.85041 40.5097 9.85041 40.7323C9.85041 40.9271 9.78086 41.094 9.64175 41.2331C13.6759 44.2378 18.1969 45.7402 23.2047 45.7402C26.1538 45.7402 28.936 45.2116 31.5512 44.1544V43.9457C27.7675 41.6643 24.8462 38.604 22.7874 34.7646C22.6761 34.8481 22.537 34.8898 22.3701 34.8898C21.8137 34.8898 21.5355 34.6116 21.5355 34.0551C21.5355 33.6935 21.7024 33.4431 22.0362 33.304C20.5895 30.1601 19.8662 26.7937 19.8662 23.2047C19.8662 20.0887 20.4365 17.1118 21.5772 14.274L21.5355 14.0236C21.5355 13.7454 21.6746 13.5089 21.9528 13.3142C24.0394 8.64018 27.3084 4.99556 31.7599 2.38033C30.953 2.0743 30.0906 1.78217 29.1725 1.50396H29.0473C28.8247 1.50396 28.6439 1.44831 28.5048 1.33703C26.6685 0.891883 24.9019 0.669312 23.2047 0.669312C23.2047 1.22574 22.9265 1.50396 22.3701 1.50396C21.8693 1.50396 21.5911 1.25356 21.5355 0.752775C18.3638 1.00317 15.4147 1.85172 12.6882 3.29844C13.0221 3.43755 13.189 3.67404 13.189 4.00789C13.189 4.56432 12.9108 4.84254 12.3544 4.84254C11.7979 4.84254 11.5197 4.56432 11.5197 4.00789V3.96616C7.73598 6.27535 4.85645 9.43309 2.88112 13.4394ZM5.09294 10.1008C5.23204 9.93387 5.42679 9.85041 5.67719 9.85041C5.89976 9.85041 6.09451 9.93387 6.26144 10.1008C6.42837 10.2677 6.51183 10.4625 6.51183 10.6851C6.51183 10.9355 6.42837 11.1441 6.26144 11.311C6.09451 11.4502 5.89976 11.5197 5.67719 11.5197C5.12076 11.5197 4.84254 11.2415 4.84254 10.6851C4.84254 10.4625 4.92601 10.2677 5.09294 10.1008ZM6.26144 16.778C6.42837 16.9449 6.51183 17.1397 6.51183 17.3622C6.51183 17.6126 6.42837 17.8213 6.26144 17.9882C6.09451 18.1273 5.89976 18.1969 5.67719 18.1969C5.12076 18.1969 4.84254 17.9187 4.84254 17.3622C4.84254 17.1397 4.92601 16.9449 5.09294 16.778C5.23204 16.611 5.42679 16.5276 5.67719 16.5276C5.89976 16.5276 6.09451 16.611 6.26144 16.778ZM2.92286 20.1166C3.08979 20.2835 3.17325 20.4782 3.17325 20.7008C3.17325 20.9512 3.08979 21.1599 2.92286 21.3268C2.75593 21.4659 2.56118 21.5355 2.3386 21.5355C1.78217 21.5355 1.50396 21.2572 1.50396 20.7008C1.50396 20.1444 1.78217 19.8662 2.3386 19.8662C2.56118 19.8662 2.75593 19.9496 2.92286 20.1166ZM5.09294 23.4551C5.23204 23.2882 5.42679 23.2047 5.67719 23.2047C5.89976 23.2047 6.09451 23.2882 6.26144 23.4551C6.42837 23.6221 6.51183 23.8168 6.51183 24.0394C6.51183 24.2898 6.42837 24.4984 6.26144 24.6654C6.09451 24.8045 5.89976 24.874 5.67719 24.874C5.12076 24.874 4.84254 24.5958 4.84254 24.0394C4.84254 23.8168 4.92601 23.6221 5.09294 23.4551ZM2.92286 26.7937C3.08979 26.9606 3.17325 27.1554 3.17325 27.378C3.17325 27.6284 3.08979 27.837 2.92286 28.004C2.75593 28.1431 2.56118 28.2126 2.3386 28.2126C1.78217 28.2126 1.50396 27.9344 1.50396 27.378C1.50396 26.8215 1.78217 26.5433 2.3386 26.5433C2.56118 26.5433 2.75593 26.6268 2.92286 26.7937ZM5.67719 29.8819C5.89976 29.8819 6.09451 29.9654 6.26144 30.1323C6.42837 30.2992 6.51183 30.494 6.51183 30.7166C6.51183 30.967 6.42837 31.1756 6.26144 31.3425C6.09451 31.4816 5.89976 31.5512 5.67719 31.5512C5.12076 31.5512 4.84254 31.273 4.84254 30.7166C4.84254 30.494 4.92601 30.2992 5.09294 30.1323C5.23204 29.9654 5.42679 29.8819 5.67719 29.8819ZM25.7087 3.17325C25.9313 3.17325 26.126 3.25671 26.2929 3.42364C26.4599 3.59057 26.5433 3.78532 26.5433 4.00789C26.5433 4.56432 26.2651 4.84254 25.7087 4.84254C25.1523 4.84254 24.874 4.56432 24.874 4.00789C24.874 3.45146 25.1523 3.17325 25.7087 3.17325ZM14.8583 7.34648C14.8583 6.79005 15.1365 6.51183 15.6929 6.51183C15.9155 6.51183 16.1103 6.59529 16.2772 6.76222C16.4441 6.92915 16.5276 7.1239 16.5276 7.34648C16.5276 7.90291 16.2494 8.18112 15.6929 8.18112C15.1365 8.18112 14.8583 7.90291 14.8583 7.34648ZM9.85041 7.34648C9.85041 7.59687 9.76695 7.80553 9.60002 7.97246C9.4331 8.11157 9.23834 8.18112 9.01577 8.18112C8.45934 8.18112 8.18112 7.90291 8.18112 7.34648C8.18112 6.79005 8.45934 6.51183 9.01577 6.51183C9.23834 6.51183 9.4331 6.59529 9.60002 6.76222C9.76695 6.92915 9.85041 7.1239 9.85041 7.34648ZM11.5197 10.6851C11.5197 10.4625 11.6032 10.2677 11.7701 10.1008C11.9092 9.93387 12.104 9.85041 12.3544 9.85041C12.5769 9.85041 12.7717 9.93387 12.9386 10.1008C13.1055 10.2677 13.189 10.4625 13.189 10.6851C13.189 11.2415 12.9108 11.5197 12.3544 11.5197C11.7979 11.5197 11.5197 11.2415 11.5197 10.6851ZM22.9543 6.76222C23.1213 6.92915 23.2047 7.1239 23.2047 7.34648C23.2047 7.90291 22.9265 8.18112 22.3701 8.18112C21.8137 8.18112 21.5355 7.90291 21.5355 7.34648C21.5355 6.79005 21.8137 6.51183 22.3701 6.51183C22.5927 6.51183 22.7874 6.59529 22.9543 6.76222ZM19.8662 4.00789C19.8662 4.25829 19.7827 4.46695 19.6158 4.63388C19.4488 4.77299 19.2541 4.84254 19.0315 4.84254C18.4751 4.84254 18.1969 4.56432 18.1969 4.00789C18.1969 3.45146 18.4751 3.17325 19.0315 3.17325C19.2541 3.17325 19.4488 3.25671 19.6158 3.42364C19.7827 3.59057 19.8662 3.78532 19.8662 4.00789ZM19.0315 11.5197C18.4751 11.5197 18.1969 11.2415 18.1969 10.6851C18.1969 10.1286 18.4751 9.85041 19.0315 9.85041C19.2541 9.85041 19.4488 9.93387 19.6158 10.1008C19.7827 10.2677 19.8662 10.4625 19.8662 10.6851C19.8662 10.9355 19.7827 11.1441 19.6158 11.311C19.4488 11.4502 19.2541 11.5197 19.0315 11.5197ZM18.1969 17.3622C18.1969 16.8058 18.4751 16.5276 19.0315 16.5276C19.2541 16.5276 19.4488 16.611 19.6158 16.778C19.7827 16.9449 19.8662 17.1397 19.8662 17.3622C19.8662 17.6126 19.7827 17.8213 19.6158 17.9882C19.4488 18.1273 19.2541 18.1969 19.0315 18.1969C18.4751 18.1969 18.1969 17.9187 18.1969 17.3622ZM16.2772 13.4394C16.4441 13.6063 16.5276 13.8011 16.5276 14.0236C16.5276 14.5801 16.2494 14.8583 15.6929 14.8583C15.1365 14.8583 14.8583 14.5801 14.8583 14.0236C14.8583 13.4672 15.1365 13.189 15.6929 13.189C15.9155 13.189 16.1103 13.2725 16.2772 13.4394ZM16.2772 20.1166C16.4441 20.2835 16.5276 20.4782 16.5276 20.7008C16.5276 21.2572 16.2494 21.5355 15.6929 21.5355C15.1365 21.5355 14.8583 21.2572 14.8583 20.7008C14.8583 20.1444 15.1365 19.8662 15.6929 19.8662C15.9155 19.8662 16.1103 19.9496 16.2772 20.1166ZM19.0315 23.2047C19.2541 23.2047 19.4488 23.2882 19.6158 23.4551C19.7827 23.6221 19.8662 23.8168 19.8662 24.0394C19.8662 24.2898 19.7827 24.4984 19.6158 24.6654C19.4488 24.8045 19.2541 24.874 19.0315 24.874C18.4751 24.874 18.1969 24.5958 18.1969 24.0394C18.1969 23.483 18.4751 23.2047 19.0315 23.2047ZM12.3544 16.5276C12.5769 16.5276 12.7717 16.611 12.9386 16.778C13.1055 16.9449 13.189 17.1397 13.189 17.3622C13.189 17.9187 12.9108 18.1969 12.3544 18.1969C11.7979 18.1969 11.5197 17.9187 11.5197 17.3622C11.5197 17.1397 11.6032 16.9449 11.7701 16.778C11.9092 16.611 12.104 16.5276 12.3544 16.5276ZM9.60002 13.4394C9.76695 13.6063 9.85041 13.8011 9.85041 14.0236C9.85041 14.274 9.76695 14.4827 9.60002 14.6496C9.4331 14.7887 9.23834 14.8583 9.01577 14.8583C8.45934 14.8583 8.18112 14.5801 8.18112 14.0236C8.18112 13.4672 8.45934 13.189 9.01577 13.189C9.23834 13.189 9.4331 13.2725 9.60002 13.4394ZM9.01577 19.8662C9.23834 19.8662 9.4331 19.9496 9.60002 20.1166C9.76695 20.2835 9.85041 20.4782 9.85041 20.7008C9.85041 20.9512 9.76695 21.1599 9.60002 21.3268C9.4331 21.4659 9.23834 21.5355 9.01577 21.5355C8.45934 21.5355 8.18112 21.2572 8.18112 20.7008C8.18112 20.1444 8.45934 19.8662 9.01577 19.8662ZM12.3544 23.2047C12.5769 23.2047 12.7717 23.2882 12.9386 23.4551C13.1055 23.6221 13.189 23.8168 13.189 24.0394C13.189 24.5958 12.9108 24.874 12.3544 24.874C11.7979 24.874 11.5197 24.5958 11.5197 24.0394C11.5197 23.8168 11.6032 23.6221 11.7701 23.4551C11.9092 23.2882 12.104 23.2047 12.3544 23.2047ZM14.8583 27.378C14.8583 26.8215 15.1365 26.5433 15.6929 26.5433C15.9155 26.5433 16.1103 26.6268 16.2772 26.7937C16.4441 26.9606 16.5276 27.1554 16.5276 27.378C16.5276 27.9344 16.2494 28.2126 15.6929 28.2126C15.1365 28.2126 14.8583 27.9344 14.8583 27.378ZM8.18112 27.378C8.18112 26.8215 8.45934 26.5433 9.01577 26.5433C9.23834 26.5433 9.4331 26.6268 9.60002 26.7937C9.76695 26.9606 9.85041 27.1554 9.85041 27.378C9.85041 27.6284 9.76695 27.837 9.60002 28.004C9.4331 28.1431 9.23834 28.2126 9.01577 28.2126C8.45934 28.2126 8.18112 27.9344 8.18112 27.378ZM9.01577 33.2205C9.23834 33.2205 9.4331 33.304 9.60002 33.4709C9.76695 33.6378 9.85041 33.8326 9.85041 34.0551C9.85041 34.3055 9.76695 34.5142 9.60002 34.6811C9.4331 34.8202 9.23834 34.8898 9.01577 34.8898C8.45934 34.8898 8.18112 34.6116 8.18112 34.0551C8.18112 33.4987 8.45934 33.2205 9.01577 33.2205ZM11.5197 30.7166C11.5197 30.494 11.6032 30.2992 11.7701 30.1323C11.9092 29.9654 12.104 29.8819 12.3544 29.8819C12.5769 29.8819 12.7717 29.9654 12.9386 30.1323C13.1055 30.2992 13.189 30.494 13.189 30.7166C13.189 31.273 12.9108 31.5512 12.3544 31.5512C11.7979 31.5512 11.5197 31.273 11.5197 30.7166ZM19.8662 30.7166C19.8662 30.967 19.7827 31.1756 19.6158 31.3425C19.4488 31.4816 19.2541 31.5512 19.0315 31.5512C18.4751 31.5512 18.1969 31.273 18.1969 30.7166C18.1969 30.1601 18.4751 29.8819 19.0315 29.8819C19.2541 29.8819 19.4488 29.9654 19.6158 30.1323C19.7827 30.2992 19.8662 30.494 19.8662 30.7166ZM15.6929 33.2205C15.9155 33.2205 16.1103 33.304 16.2772 33.4709C16.4441 33.6378 16.5276 33.8326 16.5276 34.0551C16.5276 34.6116 16.2494 34.8898 15.6929 34.8898C15.1365 34.8898 14.8583 34.6116 14.8583 34.0551C14.8583 33.4987 15.1365 33.2205 15.6929 33.2205ZM25.7087 43.2362C25.9313 43.2362 26.126 43.3197 26.2929 43.4866C26.4599 43.6536 26.5433 43.8483 26.5433 44.0709C26.5433 44.6273 26.2651 44.9055 25.7087 44.9055C25.1523 44.9055 24.874 44.6273 24.874 44.0709C24.874 43.5145 25.1523 43.2362 25.7087 43.2362ZM19.0315 38.2284C18.4751 38.2284 18.1969 37.9502 18.1969 37.3937C18.1969 36.8373 18.4751 36.5591 19.0315 36.5591C19.2541 36.5591 19.4488 36.6425 19.6158 36.8095C19.7827 36.9764 19.8662 37.1711 19.8662 37.3937C19.8662 37.6441 19.7827 37.8528 19.6158 38.0197C19.4488 38.1588 19.2541 38.2284 19.0315 38.2284ZM16.2772 40.148C16.4441 40.315 16.5276 40.5097 16.5276 40.7323C16.5276 41.2887 16.2494 41.567 15.6929 41.567C15.1365 41.567 14.8583 41.2887 14.8583 40.7323C14.8583 40.1759 15.1365 39.8977 15.6929 39.8977C15.9155 39.8977 16.1103 39.9811 16.2772 40.148ZM19.6158 43.4866C19.7827 43.6536 19.8662 43.8483 19.8662 44.0709C19.8662 44.3213 19.7827 44.5299 19.6158 44.6969C19.4488 44.836 19.2541 44.9055 19.0315 44.9055C18.4751 44.9055 18.1969 44.6273 18.1969 44.0709C18.1969 43.5145 18.4751 43.2362 19.0315 43.2362C19.2541 43.2362 19.4488 43.3197 19.6158 43.4866ZM21.5355 40.7323C21.5355 40.1759 21.8137 39.8977 22.3701 39.8977C22.5927 39.8977 22.7874 39.9811 22.9543 40.148C23.1213 40.315 23.2047 40.5097 23.2047 40.7323C23.2047 41.2887 22.9265 41.567 22.3701 41.567C21.8137 41.567 21.5355 41.2887 21.5355 40.7323ZM12.9386 36.8095C13.1055 36.9764 13.189 37.1711 13.189 37.3937C13.189 37.9502 12.9108 38.2284 12.3544 38.2284C11.7979 38.2284 11.5197 37.9502 11.5197 37.3937C11.5197 37.1711 11.6032 36.9764 11.7701 36.8095C11.9092 36.6425 12.104 36.5591 12.3544 36.5591C12.5769 36.5591 12.7717 36.6425 12.9386 36.8095Z" fill="#016EAC"/>
</svg>
</svg>

