<svg width="49" height="49" viewBox="0 0 49 49" fill="none" xmlns="http://www.w3.org/2000/svg">
<path d="M47.9087 29.1291L48.4095 24.2047L47.9087 19.322L47.3244 17.0685L47.2827 16.985C45.7525 12.0328 42.8869 7.99869 38.6858 4.88268L38.6024 4.79921L35.2638 2.7126L34.9716 2.5874L34.6378 2.37874H34.5961C31.2853 0.792912 27.8215 0 24.2047 0C17.5276 0 11.8241 2.36483 7.09449 7.09449C4.67402 9.51496 2.87953 12.1858 1.71103 15.1071C0.570344 17.9171 0 20.9496 0 24.2047C0 27.4877 0.570344 30.5341 1.71103 33.3441C2.87953 36.2375 4.67402 38.8945 7.09449 41.315C11.8241 46.0446 17.5276 48.4095 24.2047 48.4095C27.8772 48.4095 31.3409 47.6304 34.5961 46.0724H34.6378L34.9716 45.8638L35.2638 45.7386L38.6024 43.652L38.6858 43.5685C42.8869 40.4525 45.7525 36.4184 47.2827 31.4661L47.3244 31.3827L47.9087 29.1291Z" fill="#016EAC"/>
<svg x="5.55" y="5.55" width="38" height="38" viewBox="0 0 38 38" fill="none" xmlns="http://www.w3.org/2000/svg">
<path d="M13.3731 34.2731C13.2269 33.9564 12.9955 33.7372 12.6789 33.6154C12.3622 33.4449 12.0455 33.4449 11.7288 33.6154C11.4122 33.7372 11.1808 33.9564 11.0346 34.2731L10.9981 34.3462C10.8519 34.6872 10.8519 35.0282 10.9981 35.3692C11.1442 35.6859 11.3756 35.9051 11.6923 36.0269C11.8385 36.1 12.009 36.1365 12.2038 36.1365C12.4231 36.1365 12.6423 36.0635 12.8615 35.9173C13.0808 35.7468 13.2391 35.5641 13.3365 35.3692L13.3731 35.2231C13.5192 34.9064 13.5192 34.5897 13.3731 34.2731ZM13.8115 32.7019C14.0551 32.7019 14.2865 32.6288 14.5058 32.4827C14.725 32.3609 14.8833 32.1782 14.9808 31.9346L16.0404 29.3404C15.2365 29.0968 14.4571 28.7679 13.7019 28.3538L12.6423 30.9481C12.4962 31.2647 12.4962 31.5814 12.6423 31.8981C12.7641 32.2391 12.9833 32.4705 13.3 32.5923C13.4949 32.6654 13.6654 32.7019 13.8115 32.7019ZM19 29.7058C18.5615 29.7058 18.1474 29.6814 17.7577 29.6327V36.7577C17.7577 37.0987 17.8795 37.3788 18.1231 37.5981C18.3423 37.866 18.6346 38 19 38C19.341 38 19.6333 37.866 19.8769 37.5981C20.1205 37.3788 20.2423 37.0987 20.2423 36.7577V29.6327C19.8282 29.6814 19.4141 29.7058 19 29.7058ZM24.6269 35.2231L24.6635 35.3692C24.7609 35.5641 24.9192 35.7468 25.1385 35.9173C25.3333 36.0635 25.5526 36.1365 25.7962 36.1365C25.991 36.1365 26.1494 36.1 26.2712 36.0269C26.6122 35.9051 26.8558 35.6859 27.0019 35.3692C27.1237 35.0282 27.1237 34.6872 27.0019 34.3462L26.9654 34.2731C26.8192 33.9564 26.5756 33.7372 26.2346 33.6154C25.9179 33.4449 25.6135 33.4449 25.3211 33.6154C24.9801 33.7372 24.7487 33.9564 24.6269 34.2731C24.4808 34.5897 24.4808 34.9064 24.6269 35.2231ZM25.2846 31.9346C25.4308 31.6179 25.4308 31.3013 25.2846 30.9846L24.225 28.3538C23.4699 28.7923 22.7026 29.1333 21.9231 29.3769L22.9461 31.9346C23.0436 32.1782 23.2019 32.3609 23.4212 32.4827C23.6647 32.6532 23.9083 32.7385 24.1519 32.7385C24.2981 32.7385 24.4564 32.7019 24.6269 32.6288C24.9436 32.4827 25.1628 32.2513 25.2846 31.9346ZM31.8981 23.0192L29.3404 21.9596C29.0968 22.7635 28.768 23.5308 28.3538 24.2615L30.9481 25.3212C31.1186 25.3942 31.2769 25.4308 31.4231 25.4308C31.6667 25.4308 31.8981 25.3699 32.1173 25.2481C32.3365 25.0776 32.4949 24.8827 32.5923 24.6635C32.7141 24.3224 32.7141 23.9936 32.5923 23.6769C32.4949 23.3603 32.2635 23.141 31.8981 23.0192ZM27.4404 25.65C26.9045 26.3077 26.2955 26.8923 25.6135 27.4038L30.6558 32.4096C30.9237 32.6532 31.216 32.775 31.5327 32.775C31.8981 32.775 32.2026 32.6532 32.4461 32.4096C32.6654 32.166 32.775 31.8737 32.775 31.5327C32.775 31.1917 32.6654 30.8872 32.4461 30.6192L27.4404 25.65ZM32.6288 14.3596C32.7506 14.0429 32.7506 13.7141 32.6288 13.3731C32.507 13.0564 32.2756 12.8372 31.9346 12.7154C31.6179 12.5692 31.2891 12.5692 30.9481 12.7154L28.3904 13.775C28.8045 14.5058 29.1211 15.2731 29.3404 16.0769L31.9346 15.0538C32.2756 14.8833 32.507 14.6519 32.6288 14.3596ZM12.3135 27.4038C11.6801 26.8923 11.0955 26.3077 10.5596 25.65L5.55385 30.6192C5.31026 30.8872 5.18847 31.1917 5.18847 31.5327C5.18847 31.8737 5.31026 32.166 5.55385 32.4096C5.79744 32.6532 6.08975 32.775 6.43077 32.775C6.79616 32.775 7.10064 32.6532 7.34423 32.4096L12.3135 27.4038ZM10.7423 15.5288C10.2551 16.6006 10.0115 17.7577 10.0115 19C10.0115 21.4603 10.8885 23.5673 12.6423 25.3212C13.4462 26.1494 14.3962 26.7949 15.4923 27.2577C16.6128 27.7205 17.7821 27.9519 19 27.9519C21.4846 27.9519 23.5917 27.075 25.3211 25.3212C27.075 23.5673 27.9519 21.4603 27.9519 19C27.9519 17.7577 27.7205 16.6006 27.2577 15.5288C26.7949 14.4327 26.1494 13.4827 25.3211 12.6788C23.5917 10.925 21.4846 10.0481 19 10.0481C17.7821 10.0481 16.6128 10.2673 15.4923 10.7058C14.3962 11.1929 13.4462 11.8506 12.6423 12.6788C11.8141 13.4827 11.1808 14.4327 10.7423 15.5288ZM12.7154 6.02885C12.5449 6.34551 12.5327 6.67436 12.6789 7.01538L13.7385 9.60962C14.518 9.19551 15.2974 8.87884 16.0769 8.65961L15.0173 6.02885C14.8955 5.71218 14.6763 5.49295 14.3596 5.37115C14.0186 5.225 13.6897 5.225 13.3731 5.37115C13.0564 5.49295 12.8372 5.71218 12.7154 6.02885ZM13.3731 2.74038L13.3365 2.63077C13.1904 2.3141 12.959 2.10705 12.6423 2.00962C12.35 1.8391 12.0333 1.8391 11.6923 2.00962C11.3756 2.10705 11.1442 2.3141 10.9981 2.63077C10.8519 2.97179 10.8519 3.30064 10.9981 3.61731L11.0346 3.69038C11.1564 3.93397 11.3147 4.14103 11.5096 4.31154C11.7288 4.43333 11.9603 4.49423 12.2038 4.49423C12.3744 4.49423 12.5327 4.45769 12.6789 4.38462C12.9955 4.23846 13.2269 4.00705 13.3731 3.69038C13.5192 3.37371 13.5192 3.05705 13.3731 2.74038ZM18.1231 0.365385C17.8795 0.633333 17.7577 0.925639 17.7577 1.24231V8.33077C18.1474 8.28205 18.5615 8.25769 19 8.25769C19.4141 8.25769 19.8282 8.28205 20.2423 8.33077V1.24231C20.2423 0.925639 20.1205 0.633333 19.8769 0.365385C19.6333 0.121795 19.341 0 19 0C18.6346 0 18.3423 0.121795 18.1231 0.365385ZM32.4461 7.34423C32.6654 7.07628 32.775 6.78397 32.775 6.46731C32.775 6.10192 32.6654 5.79743 32.4461 5.55384C32.2026 5.31026 31.8981 5.18846 31.5327 5.18846C31.216 5.18846 30.9237 5.31026 30.6558 5.55384L25.6135 10.5596C26.2955 11.0955 26.9045 11.6923 27.4404 12.35L32.4461 7.34423ZM24.6635 5.40769C24.3468 5.26154 24.0301 5.26154 23.7135 5.40769C23.3968 5.50513 23.1532 5.72436 22.9827 6.06538L21.9231 8.65961C22.7269 8.9032 23.5064 9.23205 24.2615 9.64615L25.3211 7.01538C25.4917 6.69872 25.4917 6.38205 25.3211 6.06538C25.2237 5.74871 25.0045 5.52949 24.6635 5.40769ZM27.0019 2.63077C26.8558 2.3141 26.6122 2.10705 26.2712 2.00962C25.9545 1.8391 25.6378 1.8391 25.3211 2.00962C25.0045 2.10705 24.7853 2.3141 24.6635 2.63077L24.6269 2.74038C24.4808 3.05705 24.4808 3.37371 24.6269 3.69038C24.7487 4.00705 24.9801 4.23846 25.3211 4.38462C25.4673 4.45769 25.6135 4.49423 25.7596 4.49423C26.0276 4.49423 26.2712 4.43333 26.4904 4.31154C26.6853 4.14103 26.8436 3.93397 26.9654 3.69038L27.0019 3.61731C27.1237 3.30064 27.1237 2.97179 27.0019 2.63077ZM1.97307 25.3212C1.82692 25.6378 1.82692 25.9667 1.97307 26.3077C2.07051 26.5513 2.22885 26.734 2.44808 26.8558C2.66731 27.0019 2.89872 27.075 3.14231 27.075C3.31282 27.075 3.47115 27.0385 3.61731 26.9654L3.72693 26.9288C4.04359 26.8071 4.26282 26.5878 4.38462 26.2712C4.55513 25.9545 4.55513 25.6378 4.38462 25.3212C4.26282 25.0045 4.04359 24.7609 3.72693 24.5904C3.41026 24.4686 3.09359 24.4686 2.77693 24.5904L2.63077 24.6269C2.31411 24.7974 2.09487 25.0288 1.97307 25.3212ZM6.06539 22.9827C5.74872 23.1045 5.51731 23.3115 5.37116 23.6038C5.24936 23.9449 5.24936 24.2737 5.37116 24.5904C5.49295 24.834 5.65128 25.0288 5.84615 25.175C6.06538 25.3212 6.29679 25.3942 6.54038 25.3942C6.68654 25.3942 6.84488 25.3699 7.01539 25.3212L9.60961 24.2615C9.19551 23.482 8.86667 22.7026 8.62308 21.9231L6.06539 22.9827ZM0.365385 18.0865C0.121795 18.3545 0 18.659 0 19C0 19.341 0.121795 19.6333 0.365385 19.8769C0.608974 20.1205 0.90128 20.2423 1.24231 20.2423H8.29424C8.26988 19.8282 8.25769 19.4141 8.25769 19C8.25769 18.5859 8.26988 18.1718 8.29424 17.7577H1.24231C0.90128 17.7577 0.608974 17.8673 0.365385 18.0865ZM6.10193 12.6788C5.7609 12.7763 5.51731 12.9833 5.37116 13.3C5.27372 13.641 5.27372 13.9699 5.37116 14.2865C5.51731 14.6032 5.74872 14.8346 6.06539 14.9808L8.65962 16.0769C8.90321 15.2244 9.21987 14.4449 9.60961 13.7385L7.05192 12.6788C6.73525 12.5327 6.41859 12.5327 6.10193 12.6788ZM3.61731 10.9981C3.27628 10.8763 2.94744 10.8763 2.63077 10.9981C2.31411 11.1199 2.09487 11.3635 1.97307 11.7288C1.82692 12.0455 1.82692 12.3622 1.97307 12.6788C2.09487 12.9955 2.31411 13.2147 2.63077 13.3365L2.77693 13.3731C2.89872 13.4218 3.05705 13.4462 3.25192 13.4462C3.47115 13.4462 3.69039 13.3853 3.90962 13.2635C4.15321 13.1173 4.31154 12.9224 4.38462 12.6788C4.55513 12.3622 4.55513 12.0577 4.38462 11.7654C4.26282 11.4 4.04359 11.1564 3.72693 11.0346L3.61731 10.9981ZM5.18847 6.46731C5.18847 6.78397 5.31026 7.07628 5.55385 7.34423L10.5596 12.35C11.0955 11.6923 11.6801 11.0955 12.3135 10.5596L7.34423 5.55384C7.10064 5.31026 6.79616 5.18846 6.43077 5.18846C6.08975 5.18846 5.79744 5.31026 5.55385 5.55384C5.31026 5.79743 5.18847 6.10192 5.18847 6.46731ZM35.9904 26.3077C36.1609 25.9667 36.1609 25.6378 35.9904 25.3212C35.8686 25.0288 35.6615 24.7974 35.3692 24.6269L35.2596 24.5904C34.8942 24.4686 34.5532 24.4686 34.2365 24.5904C33.9686 24.7609 33.7615 25.0045 33.6154 25.3212C33.4692 25.6378 33.4692 25.9545 33.6154 26.2712C33.7615 26.5878 33.9686 26.8071 34.2365 26.9288L34.3827 26.9654C34.5288 27.0385 34.6872 27.075 34.8577 27.075C35.1013 27.075 35.3205 27.0019 35.5154 26.8558C35.759 26.734 35.9173 26.5513 35.9904 26.3077ZM35.9904 12.6788C36.1609 12.3622 36.1609 12.0455 35.9904 11.7288C35.8686 11.3635 35.6615 11.1199 35.3692 10.9981C35.0526 10.8763 34.7237 10.8763 34.3827 10.9981L34.2365 11.0346C33.9686 11.1564 33.7615 11.4 33.6154 11.7654C33.4692 12.0577 33.4692 12.3622 33.6154 12.6788C33.6885 12.9224 33.8468 13.1173 34.0904 13.2635C34.3096 13.3853 34.5167 13.4462 34.7115 13.4462C34.9064 13.4462 35.0891 13.4218 35.2596 13.3731L35.3692 13.3365C35.6615 13.2147 35.8686 12.9955 35.9904 12.6788ZM37.6346 18.0865C37.391 17.8673 37.0987 17.7577 36.7577 17.7577H29.6692C29.718 18.1718 29.7423 18.5859 29.7423 19C29.7423 19.4141 29.718 19.8282 29.6692 20.2423H36.7577C37.0987 20.2423 37.391 20.1205 37.6346 19.8769C37.8782 19.6333 38 19.341 38 19C38 18.659 37.8782 18.3545 37.6346 18.0865Z" fill="white"/>
</svg>
</svg>
