<svg width="498" height="723" viewBox="0 0 498 723" fill="none" xmlns="http://www.w3.org/2000/svg">
<path d="M249 0C149.9 0 69.7 80.2 69.7 179.3V246.5C34.9 252.8 0 261.2 0 272.1V622.8C0 622.8 0 632.5 10.9 637.1C50.4 653.1 205.8 708.1 241.5 720.7C246.1 722.4 247.4 722.4 248.6 722.4C250.3 722.4 251.1 722.4 255.7 720.7C291.4 708.1 447.2 653.1 486.7 637.1C496.8 632.9 497.2 623.2 497.2 623.2V272.1C497.2 261.2 462.8 252.4 427.9 246.5V179.3C428.4 80.2 347.7 0 249 0ZM249 85.7C307.4 85.7 342.7 121 342.7 179.4V237.8C277.2 233.2 221.3 233.2 155.4 237.8V179.4C155.4 120.9 190.7 85.7 249 85.7ZM248.6 323.8C330.1 323.8 398.5 330.1 398.5 341.4V560.2C398.5 563.6 398.1 564 395.1 565.2C392.2 566.5 256.1 615.6 256.1 615.6C256.1 615.6 250.6 617.3 249 617.3C247.3 617.3 241.9 615.2 241.9 615.2C241.9 615.2 105.8 566.1 102.9 564.8C100 563.5 99.5 563.1 99.5 559.8V341C98.7 329.7 167.1 323.8 248.6 323.8Z" fill="black"/>
</svg>
