<svg width="114" height="53" viewBox="0 0 114 53" fill="none" xmlns="http://www.w3.org/2000/svg">
<path fill-rule="evenodd" clip-rule="evenodd" d="M14.4467 52.7861L40.9917 5.53235L49.9391 10.8507L26.3369 52.8167L14.4467 52.7861Z" fill="white"/>
<path fill-rule="evenodd" clip-rule="evenodd" d="M0 5.25721L14.625 31.2987H26.545L11.92 5.25721H0Z" fill="white"/>
<path d="M50.0283 0L54.3088 17.6667L32.9955 5.04325L50.0283 0Z" fill="white"/>
<path d="M41.0809 52.8166L50.5337 26.3166H55.8248L65.2479 52.8166H60.2539L58.2029 46.673H48.1556L46.0451 52.8166H41.0809ZM49.4041 42.8829H56.8652L53.1198 31.8795L49.4041 42.8829ZM66.7341 52.8166L73.363 43.4331L66.7341 34.0496H71.7875L76.4247 40.7128L81.0322 34.0496H86.1153L79.4567 43.4331L86.1153 52.8166H81.0322L76.4247 46.1534L71.7875 52.8166H66.7341ZM91.6443 31.1154C90.7822 31.1154 90.0688 30.8403 89.504 30.3207C88.969 29.8011 88.7014 29.1286 88.7014 28.3034C88.7014 27.5087 88.969 26.8362 89.504 26.3472C90.0688 25.8276 90.7822 25.5525 91.6443 25.5525C92.5063 25.5525 93.19 25.8276 93.7548 26.3472C94.3196 26.8668 94.6168 27.5087 94.6168 28.3034C94.6168 29.0981 94.3196 29.7705 93.7548 30.3207C93.19 30.8403 92.5063 31.1154 91.6443 31.1154ZM89.2959 52.8166V34.0496H94.0223V52.8166H89.2959ZM106.477 52.8166C104.842 52.8166 103.445 52.5415 102.197 52.0219C100.978 51.4718 99.9972 50.7076 99.254 49.7601C98.5109 48.8126 98.065 47.6817 97.9164 46.4285H102.672C102.821 47.1621 103.208 47.8039 103.862 48.3235C104.515 48.8431 105.378 49.0877 106.388 49.0877C107.399 49.0877 108.172 48.8737 108.647 48.4458C109.153 48.0179 109.39 47.5289 109.39 46.9787C109.39 46.184 109.034 45.6338 108.35 45.3587C107.666 45.0531 106.715 44.778 105.467 44.5029C104.694 44.3195 103.891 44.1056 103.059 43.861C102.256 43.6165 101.513 43.2803 100.8 42.9135C100.146 42.5162 99.6107 41.9966 99.1649 41.3853C98.7487 40.7434 98.5406 39.9792 98.5406 39.0623C98.5406 37.4118 99.1649 36.0058 100.443 34.8749C101.751 33.744 103.564 33.1632 105.883 33.1632C108.053 33.1632 109.747 33.6828 111.025 34.722C112.333 35.7613 113.106 37.1673 113.344 39.0012H108.885C108.618 37.6257 107.607 36.9227 105.823 36.9227C104.932 36.9227 104.248 37.1061 103.772 37.4423C103.297 37.8091 103.059 38.237 103.059 38.7566C103.059 39.3068 103.416 39.7653 104.129 40.0709C104.842 40.4072 105.794 40.7128 106.953 40.9879C108.231 41.2936 109.39 41.6298 110.461 41.9966C111.531 42.3633 112.393 42.8829 113.047 43.6165C113.671 44.3195 113.998 45.3587 113.998 46.673C114.028 47.8345 113.73 48.8737 113.106 49.8212C112.482 50.7688 111.62 51.4718 110.461 52.0219C109.39 52.5721 108.053 52.8166 106.477 52.8166Z" fill="white"/>
</svg>
