<svg width="18" height="23" viewBox="0 0 18 23" fill="none" xmlns="http://www.w3.org/2000/svg">
<path d="M4.83939 11.4202H12.5937C13.1241 11.4202 13.5559 11.8473 13.5559 12.3777C13.5559 12.9081 13.1288 13.3353 12.5984 13.3353H4.83939C4.30898 13.3353 3.88184 12.9081 3.88184 12.3777C3.88184 11.8473 4.30898 11.4202 4.83939 11.4202Z" fill="#2990C8"/>
<path fill-rule="evenodd" clip-rule="evenodd" d="M17.1846 5.89113C17.1953 5.90162 17.4191 6.12175 17.4284 6.52449C17.4284 6.5263 17.4284 6.52742 17.4278 6.5281C17.427 6.52918 17.4247 6.52918 17.419 6.52918V22.0424C17.419 22.5729 16.9918 23 16.4614 23H3.94755C1.76959 23 0 21.2304 0 19.0525L0.00469381 3.65184C0.0563265 1.62878 1.71796 0 3.75041 0H16.4755C17.602 0.0985714 17.5739 1.18755 17.1749 1.61C15.2316 3.67531 17.1048 5.80195 17.1846 5.89113ZM14.7106 1.91041H3.75041C2.74122 1.91041 1.9198 2.73184 1.9198 3.74102C1.9198 4.7502 2.74122 5.57163 3.75041 5.57163H14.7716C14.3492 4.53898 14.1661 3.23408 14.7106 1.91041ZM1.92449 19.0478C1.92449 20.1696 2.8351 21.0802 3.95694 21.0802H15.5133V7.49143H3.7551C3.08857 7.49143 2.46429 7.31776 1.92449 7.01265V19.0478Z" fill="#2990C8"/>
</svg>
