<svg width="19" height="23" viewBox="0 0 19 23" fill="none" xmlns="http://www.w3.org/2000/svg">
<path d="M1.92449 21.0849H16.851V1.9151H1.92449V21.0849ZM17.8133 23H0.962245C0.431837 23 0 22.5729 0 22.0424V0.957551C0 0.427143 0.431837 0 0.962245 0H17.8133C18.3437 0 18.7755 0.427143 18.7755 0.957551V22.0424C18.7755 22.5729 18.3437 23 17.8133 23Z" fill="#2990C8"/>
<path d="M5.19612 8.8902H13.5794V5.06939H5.19612V8.8902ZM14.5416 10.81H4.23388C3.70347 10.81 3.27163 10.3829 3.27163 9.85245V4.11653C3.27163 3.58612 3.70347 3.15898 4.23388 3.15898H14.5416C15.072 3.15898 15.5039 3.58612 15.5039 4.11653V9.85245C15.5039 10.3782 15.072 10.81 14.5416 10.81Z" fill="#2990C8"/>
<path d="M7.38347 19.2731H5.00367C4.47326 19.2731 4.04143 18.8459 4.04143 18.3155C4.04143 17.7851 4.47326 17.358 5.00367 17.358H7.38347C7.91388 17.358 8.34571 17.7851 8.34571 18.3155C8.34571 18.8412 7.91388 19.2731 7.38347 19.2731Z" fill="#2990C8"/>
<path d="M13.6733 19.2731H11.2935C10.7631 19.2731 10.3312 18.8459 10.3312 18.3155C10.3312 17.7851 10.7631 17.358 11.2935 17.358H13.6733C14.2037 17.358 14.6355 17.7851 14.6355 18.3155C14.6402 18.8412 14.2084 19.2731 13.6733 19.2731Z" fill="#2990C8"/>
<path d="M7.38347 15.2457H5.00367C4.47326 15.2457 4.04143 14.8186 4.04143 14.2882C4.04143 13.7578 4.47326 13.3306 5.00367 13.3306H7.38347C7.91388 13.3306 8.34571 13.7578 8.34571 14.2882C8.34571 14.8186 7.91388 15.2457 7.38347 15.2457Z" fill="#2990C8"/>
<path d="M13.6733 15.2457H11.2935C10.7631 15.2457 10.3312 14.8186 10.3312 14.2882C10.3312 13.7578 10.7631 13.3306 11.2935 13.3306H13.6733C14.2037 13.3306 14.6355 13.7578 14.6355 14.2882C14.6402 14.8186 14.2084 15.2457 13.6733 15.2457Z" fill="#2990C8"/>
</svg>
