<svg width="23" height="23" viewBox="0 0 23 23" fill="none" xmlns="http://www.w3.org/2000/svg">
<path d="M16.2917 0C14.5734 0 13.0161 0.321941 11.7995 0.928385C10.5828 1.53483 9.58333 2.52311 9.58333 3.83333V7.66667C9.58333 7.7902 9.62451 7.90999 9.64323 8.02604C8.75228 7.79395 7.764 7.66667 6.70833 7.66667C4.99007 7.66667 3.43278 7.98861 2.21615 8.59505C0.999512 9.2015 0 10.1898 0 11.5V19.1667C0 20.4769 0.999512 21.4652 2.21615 22.0716C3.43278 22.6781 4.99007 23 6.70833 23C8.42659 23 9.98389 22.6781 11.2005 22.0716C12.4172 21.4652 13.4167 20.4769 13.4167 19.1667V18.7773C14.2964 19.0094 15.2585 19.1667 16.2917 19.1667C18.0099 19.1667 19.5672 18.8447 20.7839 18.2383C22.0005 17.6318 23 16.6436 23 15.3333V3.83333C23 2.52311 22.0005 1.53483 20.7839 0.928385C19.5672 0.321941 18.0099 0 16.2917 0ZM16.2917 1.91667C17.7516 1.91667 19.0506 2.23112 19.9154 2.66536C20.7801 3.09961 21.0833 3.55632 21.0833 3.83333C21.0833 4.11035 20.7801 4.56706 19.9154 5.0013C19.0506 5.43555 17.7516 5.75 16.2917 5.75C14.8317 5.75 13.5327 5.43555 12.668 5.0013C11.8032 4.56706 11.5 4.11035 11.5 3.83333C11.5 3.55632 11.8032 3.09961 12.668 2.66536C13.5327 2.23112 14.8317 1.91667 16.2917 1.91667ZM11.5 6.55859C11.6011 6.61475 11.6947 6.68587 11.7995 6.73828C13.0161 7.34473 14.5734 7.66667 16.2917 7.66667C18.0099 7.66667 19.5672 7.34473 20.7839 6.73828C20.8887 6.68587 20.9823 6.61475 21.0833 6.55859V7.66667C21.0833 7.94369 20.7801 8.40039 19.9154 8.83463C19.0506 9.26888 17.7516 9.58333 16.2917 9.58333C14.8317 9.58333 13.5327 9.26888 12.668 8.83463C11.8032 8.40039 11.5 7.94369 11.5 7.66667V6.55859ZM6.70833 9.58333C8.16829 9.58333 9.46729 9.89779 10.332 10.332C11.1968 10.7663 11.5 11.223 11.5 11.5C11.5 11.777 11.1968 12.2337 10.332 12.668C9.46729 13.1022 8.16829 13.4167 6.70833 13.4167C5.24837 13.4167 3.94938 13.1022 3.08464 12.668C2.21989 12.2337 1.91667 11.777 1.91667 11.5C1.91667 11.223 2.21989 10.7663 3.08464 10.332C3.94938 9.89779 5.24837 9.58333 6.70833 9.58333ZM21.0833 10.3919V11.5C21.0833 11.777 20.7801 12.2337 19.9154 12.668C19.0506 13.1022 17.7516 13.4167 16.2917 13.4167C15.2023 13.4167 14.2178 13.237 13.4167 12.9674V11.5C13.4167 11.3765 13.3755 11.2567 13.3568 11.1406C14.2477 11.3727 15.236 11.5 16.2917 11.5C18.0099 11.5 19.5672 11.1781 20.7839 10.5716C20.8887 10.5192 20.9823 10.4481 21.0833 10.3919ZM1.91667 14.2253C2.01774 14.2814 2.11133 14.3525 2.21615 14.4049C3.43278 15.0114 4.99007 15.3333 6.70833 15.3333C8.42659 15.3333 9.98389 15.0114 11.2005 14.4049C11.3053 14.3525 11.3989 14.2814 11.5 14.2253V15.3333C11.5 15.6104 11.1968 16.0671 10.332 16.5013C9.46729 16.9355 8.16829 17.25 6.70833 17.25C5.24837 17.25 3.94938 16.9355 3.08464 16.5013C2.21989 16.0671 1.91667 15.6104 1.91667 15.3333V14.2253ZM21.0833 14.2253V15.3333C21.0833 15.6104 20.7801 16.0671 19.9154 16.5013C19.0506 16.9355 17.7516 17.25 16.2917 17.25C15.2023 17.25 14.2178 17.0965 13.4167 16.8307V14.974C14.2964 15.2061 15.2547 15.3333 16.2917 15.3333C18.0099 15.3333 19.5672 15.0114 20.7839 14.4049C20.8887 14.3525 20.9823 14.2814 21.0833 14.2253ZM1.91667 18.0586C2.01774 18.1147 2.11133 18.1859 2.21615 18.2383C3.43278 18.8447 4.99007 19.1667 6.70833 19.1667C8.42659 19.1667 9.98389 18.8447 11.2005 18.2383C11.3053 18.1859 11.3989 18.1147 11.5 18.0586V19.1667C11.5 19.4437 11.1968 19.9004 10.332 20.3346C9.46729 20.7689 8.16829 21.0833 6.70833 21.0833C5.24837 21.0833 3.94938 20.7689 3.08464 20.3346C2.21989 19.9004 1.91667 19.4437 1.91667 19.1667V18.0586Z" fill="#2990C8"/>
</svg>
