<svg width="24" height="18" viewBox="0 0 24 18" fill="none" xmlns="http://www.w3.org/2000/svg">
<path fill-rule="evenodd" clip-rule="evenodd" d="M15.7474 12.2964C16.9254 12.2964 17.8553 11.2631 17.8553 10.0025C17.8553 8.74185 16.9254 7.70856 15.7474 7.70856C14.5695 7.70856 13.6395 8.74185 13.6395 10.0025C13.6395 11.2631 14.5901 12.2964 15.7474 12.2964ZM6.09644 10.0025C6.09644 8.74185 7.02641 7.70856 8.20437 7.70856C9.38232 7.70856 10.333 8.74185 10.3123 10.0025C10.3123 11.2631 9.38232 12.2964 8.20437 12.2964C7.04708 12.2964 6.09644 11.2631 6.09644 10.0025ZM24 11.6963C23.4144 6.25279 21.1619 2.17009 21.1619 2.17009C18.186 -0.0618276 15.3548 0.000171751 15.3548 0.000171751L15.0655 0.330826C18.5787 1.40545 20.2113 2.9554 20.2113 2.9554C15.3022 0.264874 9.5357 0.264388 4.77383 2.35608C4.00919 2.70741 3.55454 2.9554 3.55454 2.9554C3.55454 2.9554 5.26981 1.32279 8.98967 0.248162L8.78301 0.000171751C8.78301 0.000171751 5.95178 -0.0618276 2.97589 2.17009C2.97589 2.17009 0 7.5639 0 14.2183C0 14.2183 1.73594 17.2149 6.3031 17.3595C6.3031 17.3595 7.06774 16.4296 7.68772 15.6443C5.06315 14.859 4.07118 13.2057 4.07118 13.2057C4.30157 13.3669 4.64526 13.5644 4.81649 13.6628C4.87121 13.6942 4.90832 13.7156 4.91849 13.7223C8.40667 15.6757 13.3615 16.3157 17.814 14.4456C18.5373 14.177 19.3433 13.7843 20.1906 13.2264C20.1906 13.2264 19.1573 14.921 16.4501 15.6856C17.07 16.4709 17.814 17.3595 17.814 17.3595C21.6542 17.2379 23.5074 15.1 24 14.4225V11.6963Z"/>
</svg>
