<svg width="23" height="25" viewBox="0 0 23 25" fill="none" xmlns="http://www.w3.org/2000/svg">
<path fill-rule="evenodd" clip-rule="evenodd" d="M11.2895 9.47368C12.9611 9.47368 14.3158 10.8284 14.3158 12.5C14.3158 14.1716 12.9611 15.5263 11.2895 15.5263C9.61786 15.5263 8.26316 14.1716 8.26316 12.5C8.26316 10.8284 9.61786 9.47368 11.2895 9.47368Z" stroke="#2990C8" stroke-width="1.5" stroke-linecap="round" stroke-linejoin="round"/>
<path fill-rule="evenodd" clip-rule="evenodd" d="M21.1771 6.7503C20.3497 5.30704 18.5178 4.81321 17.0861 5.64663C15.8408 6.37005 14.2844 5.46488 14.2844 4.01685C14.2844 2.35118 12.9429 1 11.2892 1C9.63553 1 8.29398 2.35118 8.29398 4.01685C8.29398 5.46488 6.73762 6.37005 5.49346 5.64663C4.06056 4.81321 2.22877 5.30704 1.40133 6.7503C0.575056 8.19355 1.06536 10.0386 2.49826 10.8708C3.7424 11.5954 3.7424 13.4046 2.49826 14.1292C1.06536 14.9626 0.575056 16.8077 1.40133 18.2498C2.22877 19.6929 4.06056 20.1868 5.49227 19.3546H5.49346C6.73762 18.63 8.29398 19.5351 8.29398 20.9831C8.29398 22.6488 9.63553 24 11.2892 24C12.9429 24 14.2844 22.6488 14.2844 20.9831C14.2844 19.5351 15.8408 18.63 17.0861 19.3546C18.5178 20.1868 20.3497 19.6929 21.1771 18.2498C22.0044 16.8077 21.513 14.9626 20.0813 14.1292H20.0801C18.836 13.4046 18.836 11.5954 20.0813 10.8708C21.513 10.0386 22.0044 8.19355 21.1771 6.7503Z" stroke="#2990C8" stroke-width="1.5" stroke-linecap="round" stroke-linejoin="round"/>
</svg>
