<svg width="24" height="20" viewBox="0 0 24 20" fill="none" xmlns="http://www.w3.org/2000/svg">
<path d="M9.305 13.235C9.305 14.28 8.76 15.99 7.47 15.99C6.18 15.99 5.635 14.28 5.635 13.235C5.635 12.19 6.18 10.48 7.47 10.48C8.76 10.48 9.305 12.19 9.305 13.235ZM24 10.71C24 12.305 23.84 13.995 23.125 15.46C21.23 19.29 16.02 19.2 12.29 19.2C8.5 19.2 2.98 19.335 1.01 15.46C0.28 14.01 0 12.305 0 10.71C0 8.615 0.695 6.635 2.075 5.03C1.815 4.24 1.69 3.41 1.69 2.59C1.69 1.515 1.935 0.975 2.42 0C4.685 0 6.135 0.45 7.86 1.8C9.31 1.455 10.8 1.3 12.295 1.3C13.645 1.3 15.005 1.445 16.315 1.76C18.015 0.425 19.465 0 21.705 0C22.195 0.975 22.435 1.515 22.435 2.59C22.435 3.41 22.305 4.225 22.05 5C23.425 6.62 24 8.615 24 10.71ZM20.785 13.235C20.785 11.04 19.45 9.105 17.11 9.105C16.165 9.105 15.26 9.275 14.31 9.405C13.565 9.52 12.82 9.565 12.055 9.565C11.295 9.565 10.55 9.52 9.8 9.405C8.865 9.275 7.95 9.105 7 9.105C4.66 9.105 3.325 11.04 3.325 13.235C3.325 17.625 7.345 18.3 10.845 18.3H13.255C16.77 18.3 20.785 17.63 20.785 13.235ZM16.655 10.48C15.365 10.48 14.82 12.19 14.82 13.235C14.82 14.28 15.365 15.99 16.655 15.99C17.945 15.99 18.49 14.28 18.49 13.235C18.49 12.19 17.945 10.48 16.655 10.48Z" />
</svg>
