<svg width="22" height="14" viewBox="0 -3 22 20" fill="none" xmlns="http://www.w3.org/2000/svg">
<path d="M21.548 0.451974C20.9455 -0.150658 19.9683 -0.150658 19.3656 0.451974L13.1823 6.63534L9.90884 3.36162C9.61942 3.07221 9.227 2.9096 8.81758 2.9096C8.4083 2.9096 8.01588 3.07213 7.72646 3.36162L0.451974 10.6363C-0.150658 11.2389 -0.150658 12.216 0.451974 12.8187C0.753327 13.1201 1.14828 13.2707 1.54309 13.2707C1.93805 13.2707 2.333 13.1199 2.63421 12.8187L8.81758 6.63556L12.0911 9.90906C12.3805 10.1985 12.773 10.361 13.1823 10.361C13.5916 10.361 13.984 10.1985 14.2735 9.90906L21.5481 2.63443C22.1507 2.0318 22.1506 1.05468 21.548 0.451974Z" fill="#2990C8"/>
</svg>
