<svg width="21" height="17" viewBox="0 0 21 17" fill="none" xmlns="http://www.w3.org/2000/svg">
<path d="M13.8121 15.3472L16.3545 10.0929H18.8969H19.0664C19.7443 10.0929 20.0833 9.41496 20.0833 8.90649C20.0833 8.22852 19.5748 7.55056 18.7274 7.55056H15.3376H15.1681C14.8291 7.55056 14.3206 7.88954 14.1511 8.22852L12.4562 11.6184L8.3884 1.61835V1.44886C7.87992 0.601404 6.52399 0.601403 6.18501 1.61835L3.47314 7.72005H1.26975H1.10026C0.422296 7.72005 0.083313 8.39801 0.083313 8.90649C0.083313 9.58445 0.591788 10.2624 1.43925 10.2624H4.82908H4.99857C5.50704 10.2624 5.84603 9.92344 6.01552 9.58445L7.71043 5.51666L11.6087 15.3472V15.5167C12.1172 16.1946 13.4731 16.1946 13.8121 15.3472Z" fill="#2990C8"/>
</svg>
