<svg width="36" height="36" viewBox="0 0 36 36" fill="none" xmlns="http://www.w3.org/2000/svg">
<path d="M18 36C27.9411 36 36 27.9411 36 18C36 8.05888 27.9411 0 18 0C8.05888 0 0 8.05888 0 18C0 27.9411 8.05888 36 18 36Z" fill="#2A5BDB"/>
<path d="M24.2318 8.96448L22.4488 9.58853L23.0902 11.6068L17.7784 8.86047L10.582 12.8152V18.1493L13.4695 17.1266L13.4497 14.4694L17.7784 12.1714L21.9139 14.1896L19.8486 14.9499L20.5024 16.8121L26.2054 14.774L24.2318 8.96448Z" fill="white"/>
<path d="M11.3145 26.8985L13.0975 26.272L12.4561 24.2537L17.7654 27L24.9618 23.0477V17.7136L22.0768 18.7339L22.0966 21.391L17.7654 23.6916L13.6299 21.6733L15.6952 20.9106L15.0414 19.0509L9.34082 21.0864L11.3145 26.8985Z" fill="white"/>
</svg>

