<svg width="22" height="17" viewBox="0 -3 22 22" fill="none" xmlns="http://www.w3.org/2000/svg">
<path d="M0 1.375C0 1.01033 0.144866 0.660591 0.402728 0.402728C0.660591 0.144866 1.01033 0 1.375 0H2.75C3.11467 0 3.46441 0.144866 3.72227 0.402728C3.98013 0.660591 4.125 1.01033 4.125 1.375C4.125 1.73967 3.98013 2.08941 3.72227 2.34727C3.46441 2.60513 3.11467 2.75 2.75 2.75H1.375C1.01033 2.75 0.660591 2.60513 0.402728 2.34727C0.144866 2.08941 0 1.73967 0 1.375ZM6.875 1.375C6.875 1.01033 7.01987 0.660591 7.27773 0.402728C7.53559 0.144866 7.88533 0 8.25 0H20.625C20.9897 0 21.3394 0.144866 21.5973 0.402728C21.8551 0.660591 22 1.01033 22 1.375C22 1.73967 21.8551 2.08941 21.5973 2.34727C21.3394 2.60513 20.9897 2.75 20.625 2.75H8.25C7.88533 2.75 7.53559 2.60513 7.27773 2.34727C7.01987 2.08941 6.875 1.73967 6.875 1.375ZM0 8.25C0 7.88533 0.144866 7.53559 0.402728 7.27773C0.660591 7.01987 1.01033 6.875 1.375 6.875H2.75C3.11467 6.875 3.46441 7.01987 3.72227 7.27773C3.98013 7.53559 4.125 7.88533 4.125 8.25C4.125 8.61467 3.98013 8.96441 3.72227 9.22227C3.46441 9.48013 3.11467 9.625 2.75 9.625H1.375C1.01033 9.625 0.660591 9.48013 0.402728 9.22227C0.144866 8.96441 0 8.61467 0 8.25ZM6.875 8.25C6.875 7.88533 7.01987 7.53559 7.27773 7.27773C7.53559 7.01987 7.88533 6.875 8.25 6.875H20.625C20.9897 6.875 21.3394 7.01987 21.5973 7.27773C21.8551 7.53559 22 7.88533 22 8.25C22 8.61467 21.8551 8.96441 21.5973 9.22227C21.3394 9.48013 20.9897 9.625 20.625 9.625H8.25C7.88533 9.625 7.53559 9.48013 7.27773 9.22227C7.01987 8.96441 6.875 8.61467 6.875 8.25ZM0 15.125C0 14.7603 0.144866 14.4106 0.402728 14.1527C0.660591 13.8949 1.01033 13.75 1.375 13.75H2.75C3.11467 13.75 3.46441 13.8949 3.72227 14.1527C3.98013 14.4106 4.125 14.7603 4.125 15.125C4.125 15.4897 3.98013 15.8394 3.72227 16.0973C3.46441 16.3551 3.11467 16.5 2.75 16.5H1.375C1.01033 16.5 0.660591 16.3551 0.402728 16.0973C0.144866 15.8394 0 15.4897 0 15.125ZM6.875 15.125C6.875 14.7603 7.01987 14.4106 7.27773 14.1527C7.53559 13.8949 7.88533 13.75 8.25 13.75H20.625C20.9897 13.75 21.3394 13.8949 21.5973 14.1527C21.8551 14.4106 22 14.7603 22 15.125C22 15.4897 21.8551 15.8394 21.5973 16.0973C21.3394 16.3551 20.9897 16.5 20.625 16.5H8.25C7.88533 16.5 7.53559 16.3551 7.27773 16.0973C7.01987 15.8394 6.875 15.4897 6.875 15.125Z" fill="#2990C8"/>
</svg>
