<svg width="36" height="36" viewBox="0 0 36 36" fill="none" xmlns="http://www.w3.org/2000/svg">
<circle cx="18" cy="18" r="17.5" stroke="#113353" stroke-opacity="0.6"/>
<path d="M25.874 16.3069L25.6194 16.5615C25.4508 16.7301 25.1783 16.7301 25.0097 16.5615L18.6117 10.1599C18.6117 10.1599 18.6117 26.4042 18.6117 26.6409C18.6117 26.8776 18.418 27.0713 18.1813 27.0713C17.9446 27.0713 18.0594 27.0713 17.8227 27.0713C17.586 27.0713 17.3923 26.8776 17.3923 26.6409C17.3923 26.4042 17.3923 10.1599 17.3923 10.1599L10.9907 16.5615C10.8222 16.7301 10.5496 16.7301 10.381 16.5615L10.1264 16.3069C9.95786 16.1383 9.95786 15.8657 10.1264 15.6972L17.6936 8.12643C17.8621 7.95788 18.1347 7.95788 18.3033 8.12643L25.8704 15.6972C26.0426 15.8693 26.0426 16.1383 25.874 16.3069Z" fill="#113353" fill-opacity="0.6"/>
</svg>
