<svg width="36" height="36" viewBox="0 0 36 36" fill="none" xmlns="http://www.w3.org/2000/svg">
<circle cx="18" cy="18" r="17.5" stroke="#113353" stroke-opacity="0.6"/>
<path d="M25.874 18.7644L25.6194 18.5098C25.4508 18.3412 25.1783 18.3412 25.0097 18.5098L18.6117 24.9114C18.6117 24.9114 18.6117 8.66706 18.6117 8.43036C18.6117 8.19366 18.418 8 18.1813 8C17.9446 8 18.0594 8 17.8227 8C17.586 8 17.3923 8.19366 17.3923 8.43036C17.3923 8.66706 17.3923 24.9114 17.3923 24.9114L10.9907 18.5098C10.8222 18.3412 10.5496 18.3412 10.381 18.5098L10.1264 18.7644C9.95786 18.933 9.95786 19.2055 10.1264 19.3741L17.6936 26.9449C17.8621 27.1134 18.1347 27.1134 18.3033 26.9449L25.8704 19.3741C26.0426 19.202 26.0426 18.933 25.874 18.7644Z" fill="#113353" fill-opacity="0.6"/>
</svg>
