<svg width="24" height="20" viewBox="0 0 24 20" fill="none" xmlns="http://www.w3.org/2000/svg">
<path d="M21.5331 4.85786C21.5483 5.07105 21.5483 5.28429 21.5483 5.49747C21.5483 12 16.5991 19.4924 7.55333 19.4924C4.7665 19.4924 2.17768 18.6853 0 17.2843C0.395955 17.33 0.776628 17.3452 1.18782 17.3452C3.48728 17.3452 5.60407 16.5686 7.29444 15.2437C5.13199 15.198 3.31979 13.7818 2.69542 11.8325C3.00001 11.8782 3.30456 11.9086 3.62439 11.9086C4.066 11.9086 4.50766 11.8477 4.9188 11.7412C2.66499 11.2843 0.974582 9.30458 0.974582 6.91371V6.85282C1.62938 7.21831 2.39087 7.44673 3.19792 7.47715C1.87304 6.59388 1.00505 5.08629 1.00505 3.38069C1.00505 2.46699 1.24866 1.62943 1.67508 0.898457C4.09642 3.88323 7.73605 5.83244 11.8172 6.04568C11.7411 5.68019 11.6954 5.29952 11.6954 4.9188C11.6954 2.2081 13.8883 0 16.6142 0C18.0304 0 19.3096 0.593909 20.2081 1.5533C21.3198 1.34011 22.3858 0.928926 23.33 0.365486C22.9644 1.50765 22.1878 2.46704 21.1675 3.07614C22.1574 2.96959 23.1168 2.69542 24 2.31474C23.3301 3.28933 22.4924 4.15731 21.5331 4.85786Z"/>
</svg>
