<svg width="23" height="23" viewBox="0 0 23 23" fill="none" xmlns="http://www.w3.org/2000/svg">
<path d="M21.0594 1.58125C20.0052 0.527081 18.7354 0 17.25 0H5.39062C3.90521 0 2.63543 0.527081 1.58126 1.58125C0.527092 2.63541 0 3.90521 0 5.39062V17.6094C0 19.1427 0.527092 20.4125 1.58126 21.4188C2.63543 22.4729 3.90521 23 5.39062 23H17.25C18.7354 23 20.0052 22.4729 21.0594 21.4188C22.1136 20.3646 22.6406 19.0948 22.6406 17.6094V5.39062C22.6406 3.90521 22.1136 2.63541 21.0594 1.58125ZM19.55 3.1625C20.1729 3.78541 20.4844 4.52812 20.4844 5.39062V17.6094C20.4844 18.5198 20.1729 19.2865 19.55 19.9094C18.8792 20.5323 18.1125 20.8438 17.25 20.8438H5.39062C4.48021 20.8438 3.71355 20.5323 3.09064 19.9094C2.46772 19.2865 2.15625 18.5198 2.15625 17.6094V5.39062C2.15625 4.52812 2.46772 3.78541 3.09064 3.1625C3.71355 2.49166 4.48021 2.15625 5.39062 2.15625H17.25C18.1125 2.15625 18.8792 2.49166 19.55 3.1625ZM16.7469 7.61875C17.274 7.13959 17.274 6.63646 16.7469 6.10938C16.2677 5.63021 15.7646 5.63021 15.2375 6.10938L13.5125 7.83437C12.7458 7.40312 12.0271 7.1875 11.3563 7.1875H11.2844C10.5656 7.1875 9.84688 7.40312 9.12813 7.83437L7.40314 6.10938C6.92397 5.63021 6.42084 5.63021 5.89376 6.10938C5.41459 6.63646 5.41459 7.13959 5.89376 7.61875L7.61875 9.34375C7.23542 10.0146 7.04376 10.7333 7.04376 11.5C7.04376 12.3146 7.23542 13.0573 7.61875 13.7281L5.89376 15.4531C5.41459 15.9802 5.41459 16.4833 5.89376 16.9625C6.42084 17.4896 6.92397 17.4896 7.40314 16.9625L9.12813 15.2375C9.79897 15.6208 10.5177 15.8125 11.2844 15.8125H11.3563C12.1229 15.8125 12.8417 15.6208 13.5125 15.2375L15.2375 16.9625C15.7646 17.4896 16.2677 17.4896 16.7469 16.9625C17.274 16.4833 17.274 15.9802 16.7469 15.4531L15.0219 13.7281C15.4531 12.9615 15.6688 12.2188 15.6688 11.5C15.6688 10.8292 15.4531 10.1104 15.0219 9.34375L16.7469 7.61875ZM9.84688 13.0094C9.41563 12.626 9.20001 12.1229 9.20001 11.5C9.20001 10.925 9.41563 10.4219 9.84688 9.99062C10.2302 9.55937 10.7094 9.34375 11.2844 9.34375H11.3563C11.9313 9.34375 12.4344 9.55937 12.8656 9.99062C13.2969 10.4219 13.5125 10.925 13.5125 11.5C13.5125 12.1229 13.2969 12.626 12.8656 13.0094C12.4344 13.4406 11.9313 13.6562 11.3563 13.6562H11.2844C10.7094 13.6562 10.2302 13.4406 9.84688 13.0094Z" fill="#2990C8"/>
</svg>
