<svg width="25" height="21" viewBox="0 0 25 21" fill="none" xmlns="http://www.w3.org/2000/svg">
<path d="M1 19.4H24M4.45 19.4V5.83C4.45 5.769 4.47423 5.7105 4.51737 5.66737C4.5605 5.62423 4.619 5.6 4.68 5.6H7.67C7.731 5.6 7.7895 5.62423 7.83263 5.66737C7.87577 5.7105 7.9 5.769 7.9 5.83V19.4M11.35 19.4V1.3105C11.35 1.138 11.4535 1 11.58 1H14.57C14.6965 1 14.8 1.138 14.8 1.3105V19.4M18.25 19.4V9.2225C18.25 9.1305 18.3535 9.05 18.48 9.05H21.47C21.5965 9.05 21.7 9.1305 21.7 9.2225V19.4" stroke="#2990C8" stroke-width="1.5" stroke-linecap="round" stroke-linejoin="round"/>
</svg>
